<svg width="322" height="56" viewBox="0 0 322 56" fill="none" xmlns="http://www.w3.org/2000/svg">
<g clip-path="url(#clip0)">
<path d="M59.6367 5.88125C63.1968 0.901464 75.2854 3.45989 86.6372 11.5855C97.989 19.7111 104.281 30.356 100.715 35.3357L89.7931 50.5818C86.2265 55.5616 74.1444 53.0032 62.8121 44.8776C51.4798 36.752 45.1747 26.1006 48.7348 21.1208L59.6367 5.88125Z" stroke="white" stroke-width="2.50076" stroke-linecap="round" stroke-linejoin="round"/>
<path fill-rule="evenodd" clip-rule="evenodd" d="M59.6367 5.88125C63.2033 0.901464 75.2854 3.45989 86.6177 11.5855C97.9499 19.7111 104.255 30.356 100.695 35.3357L89.793 50.5818C86.233 55.5616 74.1444 53.0032 62.7925 44.8711C51.4407 36.739 45.1486 26.1006 48.7152 21.1208L59.6367 5.88125Z" fill="white" stroke="#F9C16E" stroke-width="0.875946" stroke-linecap="round" stroke-linejoin="round"/>
<path fill-rule="evenodd" clip-rule="evenodd" d="M58.8869 5.33954C60.4452 3.12703 63.5228 2.14152 67.5002 2.46785C72.9642 2.91818 80.2213 5.83556 87.1654 10.8349C94.1095 15.8343 99.2214 21.7539 101.399 26.7924C102.99 30.4408 103.042 33.6715 101.451 35.884L90.5559 51.1236C88.965 53.3426 85.8874 54.3216 81.9361 53.9953C76.4721 53.5449 69.215 50.6275 62.2448 45.6347C55.2746 40.6419 50.1888 34.7092 48.011 29.6707C46.4201 26.0158 46.3679 22.7916 47.9589 20.5791L58.8869 5.33302V5.33954ZM57.7523 10.117L49.4716 21.6691C48.2197 23.4117 48.474 26.0223 49.7259 28.9201C51.8058 33.7237 56.7026 39.3626 63.3468 44.114C69.9909 48.8654 76.8829 51.6979 82.0926 52.1286C85.2419 52.3897 87.7587 51.8023 89.0432 50.0336L97.2979 38.4816C95.8355 38.8113 94.3297 38.9039 92.838 38.7557C87.374 38.3053 80.1169 35.388 73.1663 30.3951C66.2157 25.4023 61.1168 19.4957 58.9325 14.4246C58.3163 13.0594 57.9181 11.6058 57.7523 10.117ZM99.9386 34.794C101.197 33.0253 100.962 30.4539 99.6843 27.543C97.6043 22.7394 92.7076 17.1005 86.0895 12.3491C79.4714 7.59774 72.5534 4.7652 67.3437 4.32792C64.1683 4.06686 61.6515 4.66078 60.3996 6.42948L60.3213 6.53391C59.1412 8.30261 59.3955 10.8284 60.6278 13.7132C62.7273 18.5167 67.6045 24.1557 74.2422 28.907C80.8798 33.6584 87.7848 36.4648 92.988 36.8891C96.0916 37.1501 98.5759 36.5888 99.8604 34.9311L99.9386 34.8267V34.794ZM82.9859 16.6697C86.3243 19.0519 88.7563 21.891 89.8061 24.2666C90.3994 25.6242 90.5559 26.8185 89.9626 27.6344C89.3692 28.4502 88.1956 28.6917 86.7024 28.5742C84.0943 28.3588 80.6255 26.936 77.3132 24.5473C74.0009 22.1586 71.5428 19.326 70.493 16.9569C69.9062 15.5993 69.7497 14.405 70.3365 13.5826C70.9233 12.7603 72.11 12.5253 73.5967 12.6493C76.2178 12.8647 79.654 14.2744 82.9859 16.6697Z" fill="#191919"/>
<path d="M59.6237 6.01178C63.1903 1.03199 75.2724 3.58389 86.6242 11.716C97.976 19.8481 104.268 30.4865 100.708 35.4663L89.78 50.7059C86.2199 55.6922 74.1313 53.1337 62.8056 45.0016C51.4798 36.8695 45.1617 26.2311 48.7283 21.2514L59.6237 6.01178Z" stroke="white" stroke-width="2.50076" stroke-linecap="round" stroke-linejoin="round"/>
<path fill-rule="evenodd" clip-rule="evenodd" d="M59.6498 6.25326C63.2098 1.27347 75.2919 3.8319 86.5981 11.9575C97.9043 20.0831 104.268 30.728 100.701 35.7077L89.8061 50.9473C86.2395 55.9271 74.1574 53.3752 62.7991 45.2431C51.4407 37.111 45.1943 26.4726 48.7218 21.4928L59.6498 6.25326Z" fill="white" stroke="white" stroke-width="0.875946" stroke-linecap="round" stroke-linejoin="round"/>
<path fill-rule="evenodd" clip-rule="evenodd" d="M58.893 5.33954C60.4579 3.12703 63.5355 2.14152 67.5063 2.46785C72.9703 2.91818 80.2274 5.83556 87.1781 10.8284C94.1287 15.8212 99.2275 21.7539 101.405 26.7924C102.996 30.4408 103.048 33.6715 101.457 35.884L90.5621 51.1236C88.9711 53.3426 85.8936 54.3216 81.9423 53.9953C76.4848 53.5449 69.2277 50.6275 62.251 45.6347C55.2743 40.6419 50.2015 34.7092 48.0172 29.6707C46.4263 26.0158 46.3806 22.7916 47.965 20.5791L58.893 5.33302V5.33954ZM82.5617 35.8448L65.9415 45.8762C66.7109 46.3591 67.4803 46.816 68.2236 47.2468L85.2937 36.9478C84.3808 36.6215 83.481 36.256 82.5617 35.8448ZM76.1979 32.4314L60.5166 41.9276C61.2338 42.5019 61.9511 43.0632 62.7205 43.6245L78.7734 33.926C77.8932 33.4561 77.0455 32.9666 76.1979 32.4314ZM72.9051 30.1993C66.0719 25.2456 61.0969 19.3978 58.9452 14.4246C58.3231 13.0615 57.9246 11.607 57.765 10.117L49.4777 21.6691C48.2259 23.4378 48.4801 26.0092 49.7386 28.9201C51.173 32.216 53.9181 35.897 57.6346 39.4214L72.9051 30.1993ZM99.9578 34.7679C101.216 32.9992 100.981 30.4277 99.7035 27.5104C97.6236 22.7133 92.7268 17.0678 86.1087 12.323C79.4906 7.57816 72.5596 4.7652 67.3564 4.32792C64.1745 4.06686 61.6576 4.66078 60.4058 6.42948L60.3275 6.53391C59.1473 8.29609 59.4016 10.8219 60.634 13.7132C62.74 18.5167 67.6107 24.1557 74.2548 28.907C80.899 33.6584 87.791 36.4648 92.9941 36.8891C96.0978 37.1501 98.5886 36.5888 99.8665 34.9311L99.9448 34.8267L99.9578 34.7679ZM83.0051 16.6436C86.3369 19.0258 88.769 21.8649 89.8253 24.2405C90.4121 25.5981 90.5686 26.7924 89.9753 27.6083C89.3819 28.4241 88.2083 28.6656 86.7151 28.5481C84.107 28.3327 80.6382 26.9099 77.3259 24.5212C74.0136 22.1325 71.5554 19.2999 70.5057 16.9308C69.9189 15.5732 69.7624 14.3789 70.3557 13.5565C70.9491 12.7342 72.1227 12.4992 73.5833 12.6232C76.224 12.8647 79.6602 14.2744 82.9986 16.6697L83.0051 16.6436Z" fill="#191919"/>
<path d="M119.311 41.3744C114.733 41.3744 111.161 39.1035 111.009 34.8029H116.521C116.522 35.1379 116.593 35.4691 116.727 35.7757C116.862 36.0824 117.059 36.3579 117.305 36.5853C117.551 36.8126 117.841 36.9868 118.158 37.097C118.474 37.2073 118.809 37.2511 119.144 37.2259C120.659 37.2259 121.629 36.4655 121.629 35.2277C121.629 31.2891 110.993 33.4079 111.051 25.8662C111.051 21.8331 114.355 19.5727 118.808 19.5727C123.444 19.5727 126.565 21.875 126.774 25.9343H121.189C121.094 24.5708 120.14 23.7526 118.734 23.7211C117.491 23.7211 116.553 24.3295 116.553 25.6616C116.553 29.3328 127.042 27.6913 127.042 34.8082C127.063 38.406 124.278 41.3744 119.311 41.3744ZM146.945 41.1908H141.769V38.8622C141.177 39.6565 140.404 40.2967 139.513 40.7285C138.622 41.1603 137.64 41.3711 136.65 41.3429C132.743 41.3429 130.105 38.6472 130.105 34.1316V24.2613H135.25V33.4393C135.25 35.7417 136.55 37.0109 138.491 37.0109C140.431 37.0109 141.763 35.7417 141.763 33.4393V24.2613H146.94L146.945 41.1908ZM157.56 41.4059C153.044 41.4059 150.018 38.8885 149.777 35.6368H154.896C155.016 36.8168 156.076 37.6035 157.518 37.6035C158.85 37.6035 159.548 36.9952 159.548 36.2399C159.548 33.5128 150.338 35.4847 150.338 29.2751C150.338 26.3959 152.793 24.0306 157.214 24.0306C161.635 24.0306 164 26.4588 164.331 29.7996H159.532C159.38 28.6458 158.483 27.8906 157.046 27.8906C155.835 27.8906 155.169 28.3731 155.169 29.1912C155.169 31.8869 164.315 29.9832 164.409 36.2819C164.409 39.1926 161.803 41.4059 157.56 41.4059ZM167.598 18.744H172.78V26.5322C173.386 25.7334 174.176 25.093 175.082 24.6656C175.989 24.2382 176.986 24.0365 177.988 24.0778C181.837 24.0778 184.412 26.742 184.412 31.2891V41.1908H179.262V31.9866C179.262 29.6842 177.988 28.4098 176.021 28.4098C174.054 28.4098 172.78 29.6842 172.78 31.9866V41.1908H167.598V18.744ZM187.543 19.7143C187.543 18.1409 188.781 16.8979 190.632 16.8979C192.484 16.8979 193.69 18.1409 193.69 19.7143C193.69 21.2876 192.447 22.4991 190.632 22.4991C188.818 22.4991 187.543 21.2614 187.543 19.7143ZM188.026 24.2613H193.207V41.1908H188.026V24.2613ZM204.662 41.3744C200.088 41.3744 196.512 39.1035 196.365 34.8029H201.856C201.856 35.1381 201.926 35.4697 202.06 35.7767C202.195 36.0837 202.392 36.3596 202.638 36.5871C202.884 36.8146 203.175 36.9887 203.491 37.0987C203.808 37.2086 204.144 37.2519 204.478 37.2259C205.994 37.2259 206.964 36.4655 206.964 35.2277C206.964 31.2891 196.333 33.4079 196.391 25.8662C196.391 21.8331 199.695 19.5727 204.148 19.5727C208.779 19.5727 211.899 21.875 212.114 25.9343H206.539C206.45 24.5708 205.49 23.7526 204.09 23.7211C202.847 23.7211 201.903 24.3295 201.903 25.6616C201.903 29.3328 212.418 27.6913 212.418 34.8082C212.418 38.406 209.628 41.3744 204.662 41.3744ZM213.85 24.2613H219.032L221.423 36.3239L224.271 24.2613H229.757L232.636 36.2871L234.996 24.2613H239.874L235.3 41.1908H229.573L226.909 30.1772L224.15 41.1908H218.455L213.85 24.2613ZM248.276 24.0148C250.793 24.0148 252.581 25.1686 253.489 26.6371V24.2613H258.67V41.1908H253.489V38.7678C252.55 40.252 250.761 41.3901 248.244 41.3901C244.122 41.3901 240.823 37.9969 240.823 32.6631C240.823 27.3294 244.127 24.0148 248.276 24.0148ZM249.791 28.5304C247.851 28.5304 246.12 29.9832 246.12 32.6789C246.12 35.3746 247.872 36.8745 249.791 36.8745C251.711 36.8745 253.489 35.3903 253.489 32.6789C253.489 29.9674 251.758 28.5304 249.791 28.5304ZM272.825 24.0148C276.974 24.0148 280.278 27.3504 280.278 32.6789C280.278 38.0074 276.974 41.4059 272.825 41.4059C271.807 41.4422 270.796 41.2209 269.885 40.7626C268.975 40.3042 268.195 39.6235 267.618 38.7836V49.2203H262.436V24.2613H267.618V26.6529C268.186 25.8025 268.963 25.113 269.876 24.6509C270.788 24.1888 271.804 23.9697 272.825 24.0148ZM271.284 28.5304C269.343 28.5304 267.586 30.0146 267.586 32.7261C267.586 35.4375 269.343 36.9217 271.284 36.9217C273.224 36.9217 275.007 35.4113 275.007 32.7261C275.007 30.0409 273.25 28.5304 271.284 28.5304Z" fill="black"/>
</g>
<defs>
<clipPath id="clip0">
<rect width="322" height="56" fill="white"/>
</clipPath>
</defs>
</svg>
